<svg width="223" height="75" viewBox="0 0 223 75" version="1.1" xmlns="http://www.w3.org/2000/svg" xmlns:xlink="http://www.w3.org/1999/xlink">
<title>Group 8</title>
<desc>Created using Figma</desc>
<g id="Canvas" transform="translate(-1461 -61)">
<g id="Group 8">
<g id="BEST ON ESPORTS" opacity="0.9">
<use xlink:href="#path0_fill" transform="translate(1461 117)" fill="#FFFFFF"/>
</g>
<g id="Page 1">
<g id="Fill 1">
<use xlink:href="#path1_fill" transform="translate(1542 62)" fill="#14A0FF"/>
</g>
<g id="Fill 3">
<use xlink:href="#path2_fill" transform="translate(1588 62)" fill="#14A0FF"/>
</g>
<g id="Fill 5">
<use xlink:href="#path3_fill" transform="translate(1638 62)" fill="#14A0FF"/>
</g>
<g id="Fill 10" opacity="0.803838">
<use xlink:href="#path4_fill" transform="translate(1491.29 61.5216)" fill="#FFFFFF" fill-opacity="0.9"/>
</g>
<g id="Fill 7" opacity="0.901778">
<use xlink:href="#path5_fill" transform="translate(1464 61.5086)" fill="#FFFFFF" fill-opacity="0.9"/>
</g>
</g>
</g>
</g>
<defs>
<path id="path0_fill" d="M 13.754 6.615C 13.5393 7.949 12.8953 8.99167 11.822 9.743C 12.9107 10.6017 13.3477 11.8207 13.133 13.4C 12.949 14.78 12.328 15.8917 11.27 16.735C 10.212 17.5783 8.75533 18 6.9 18L 0.368 18L 3.197 1.9L 9.269 1.9C 10.7257 1.9 11.891 2.34467 12.765 3.234C 13.639 4.108 13.9687 5.235 13.754 6.615ZM 8.786 5.35L 6.279 5.35L 5.773 8.202L 8.28 8.202C 8.74 8.202 9.131 8.07167 9.453 7.811C 9.775 7.55033 9.97433 7.20533 10.051 6.776C 10.1277 6.37733 10.0587 6.04 9.844 5.764C 9.62933 5.488 9.27667 5.35 8.786 5.35ZM 8.878 14.136C 9.23067 13.8447 9.44533 13.469 9.522 13.009C 9.59867 12.549 9.51433 12.181 9.269 11.905C 9.039 11.6137 8.671 11.468 8.165 11.468L 5.198 11.468L 4.646 14.55L 7.613 14.55C 8.119 14.55 8.54067 14.412 8.878 14.136ZM 26.372 5.442L 20.047 5.442L 19.564 8.133L 25.337 8.133L 24.716 11.583L 18.966 11.583L 18.46 14.458L 24.9 14.458L 24.279 18L 14.159 18L 16.988 1.9L 26.993 1.9L 26.372 5.442ZM 32.1973 18.322C 30.5106 18.322 29.1383 17.9693 28.0803 17.264C 27.0376 16.5433 26.3706 15.5697 26.0793 14.343L 29.4373 12.618C 29.836 14.0593 30.8633 14.78 32.5193 14.78C 33.93 14.78 34.7196 14.3277 34.8883 13.423C 34.9803 12.963 34.8193 12.6027 34.4053 12.342C 34.0066 12.066 33.2936 11.7517 32.2663 11.399C 30.7483 10.893 29.6136 10.249 28.8623 9.467C 28.1263 8.66967 27.881 7.558 28.1263 6.132C 28.3716 4.62933 29.0616 3.49467 30.1963 2.728C 31.331 1.96133 32.642 1.578 34.1293 1.578C 35.448 1.578 36.5903 1.89233 37.5563 2.521C 38.5376 3.14967 39.2353 4.04667 39.6493 5.212L 36.4293 6.914C 35.862 5.718 34.988 5.12 33.8073 5.12C 33.2553 5.12 32.8106 5.235 32.4733 5.465C 32.1513 5.695 31.952 5.98633 31.8753 6.339C 31.7833 6.78367 31.929 7.15167 32.3123 7.443C 32.711 7.719 33.3933 8.03333 34.3593 8.386C 34.6506 8.49333 34.8883 8.58533 35.0723 8.662C 35.2716 8.72333 35.5093 8.81533 35.7853 8.938C 36.0613 9.04533 36.2836 9.15267 36.4523 9.26C 36.6363 9.352 36.8433 9.47467 37.0733 9.628C 37.3186 9.766 37.5103 9.91167 37.6483 10.065C 37.8016 10.2183 37.955 10.3947 38.1083 10.594C 38.277 10.778 38.3996 10.985 38.4763 11.215C 38.5683 11.4297 38.645 11.6673 38.7063 11.928C 38.7676 12.1733 38.7906 12.4493 38.7753 12.756C 38.7753 13.0627 38.7446 13.3923 38.6833 13.745C 38.4226 15.217 37.7096 16.3517 36.5443 17.149C 35.3943 17.931 33.9453 18.322 32.1973 18.322ZM 52.8869 1.9L 52.2659 5.442L 48.1259 5.442L 45.9179 18L 42.2379 18L 44.4459 5.442L 40.3059 5.442L 40.9269 1.9L 52.8869 1.9ZM 65.1468 18.322C 62.8161 18.322 60.9608 17.4787 59.5808 15.792C 58.2161 14.1053 57.7484 12.0813 58.1778 9.72C 58.5918 7.328 59.6881 5.373 61.4668 3.855C 63.2608 2.337 65.4074 1.578 67.9068 1.578C 70.2068 1.578 72.0391 2.42133 73.4038 4.108C 74.7838 5.79467 75.2668 7.81867 74.8528 10.18C 74.4234 12.572 73.3194 14.527 71.5408 16.045C 69.7621 17.563 67.6308 18.322 65.1468 18.322ZM 65.5378 14.734C 66.8871 14.734 68.0984 14.2893 69.1718 13.4C 70.2604 12.5107 70.9274 11.3607 71.1728 9.95C 71.4181 8.53933 71.1728 7.38933 70.4368 6.5C 69.7161 5.61067 68.6888 5.166 67.3548 5.166C 66.0208 5.166 64.8324 5.61067 63.7898 6.5C 62.7471 7.38933 62.1031 8.53933 61.8578 9.95C 61.6124 11.376 61.8348 12.5337 62.5248 13.423C 63.2148 14.297 64.2191 14.734 65.5378 14.734ZM 75.5448 18L 78.3738 1.9L 81.1338 1.9L 85.7568 10.939L 87.3438 1.9L 91.0238 1.9L 88.1948 18L 85.4348 18L 80.8348 8.961L 79.2248 18L 75.5448 18ZM 108.916 5.442L 102.591 5.442L 102.108 8.133L 107.881 8.133L 107.26 11.583L 101.51 11.583L 101.004 14.458L 107.444 14.458L 106.823 18L 96.703 18L 99.532 1.9L 109.537 1.9L 108.916 5.442ZM 114.741 18.322C 113.055 18.322 111.682 17.9693 110.624 17.264C 109.582 16.5433 108.915 15.5697 108.623 14.343L 111.981 12.618C 112.38 14.0593 113.407 14.78 115.063 14.78C 116.474 14.78 117.264 14.3277 117.432 13.423C 117.524 12.963 117.363 12.6027 116.949 12.342C 116.551 12.066 115.838 11.7517 114.81 11.399C 113.292 10.893 112.158 10.249 111.406 9.467C 110.67 8.66967 110.425 7.558 110.67 6.132C 110.916 4.62933 111.606 3.49467 112.74 2.728C 113.875 1.96133 115.186 1.578 116.673 1.578C 117.992 1.578 119.134 1.89233 120.1 2.521C 121.082 3.14967 121.779 4.04667 122.193 5.212L 118.973 6.914C 118.406 5.718 117.532 5.12 116.351 5.12C 115.799 5.12 115.355 5.235 115.017 5.465C 114.695 5.695 114.496 5.98633 114.419 6.339C 114.327 6.78367 114.473 7.15167 114.856 7.443C 115.255 7.719 115.937 8.03333 116.903 8.386C 117.195 8.49333 117.432 8.58533 117.616 8.662C 117.816 8.72333 118.053 8.81533 118.329 8.938C 118.605 9.04533 118.828 9.15267 118.996 9.26C 119.18 9.352 119.387 9.47467 119.617 9.628C 119.863 9.766 120.054 9.91167 120.192 10.065C 120.346 10.2183 120.499 10.3947 120.652 10.594C 120.821 10.778 120.944 10.985 121.02 11.215C 121.112 11.4297 121.189 11.6673 121.25 11.928C 121.312 12.1733 121.335 12.4493 121.319 12.756C 121.319 13.0627 121.289 13.3923 121.227 13.745C 120.967 15.217 120.254 16.3517 119.088 17.149C 117.938 17.931 116.489 18.322 114.741 18.322ZM 130.912 1.9C 132.568 1.9 133.856 2.452 134.776 3.556C 135.696 4.64467 136.041 6.00933 135.811 7.65C 135.581 9.22933 134.875 10.5097 133.695 11.491C 132.529 12.457 131.034 12.94 129.21 12.94L 126.841 12.94L 125.944 18L 122.264 18L 125.093 1.9L 130.912 1.9ZM 132.131 7.42C 132.253 6.79133 132.161 6.293 131.855 5.925C 131.563 5.54167 131.05 5.35 130.314 5.35L 128.175 5.35L 127.439 9.49L 129.578 9.49C 130.268 9.49 130.835 9.306 131.28 8.938C 131.724 8.57 132.008 8.064 132.131 7.42ZM 143.558 18.322C 141.227 18.322 139.372 17.4787 137.992 15.792C 136.627 14.1053 136.16 12.0813 136.589 9.72C 137.003 7.328 138.099 5.373 139.878 3.855C 141.672 2.337 143.819 1.578 146.318 1.578C 148.618 1.578 150.45 2.42133 151.815 4.108C 153.195 5.79467 153.678 7.81867 153.264 10.18C 152.835 12.572 151.731 14.527 149.952 16.045C 148.173 17.563 146.042 18.322 143.558 18.322ZM 143.949 14.734C 145.298 14.734 146.51 14.2893 147.583 13.4C 148.672 12.5107 149.339 11.3607 149.584 9.95C 149.829 8.53933 149.584 7.38933 148.848 6.5C 148.127 5.61067 147.1 5.166 145.766 5.166C 144.432 5.166 143.244 5.61067 142.201 6.5C 141.158 7.38933 140.514 8.53933 140.269 9.95C 140.024 11.376 140.246 12.5337 140.936 13.423C 141.626 14.297 142.63 14.734 143.949 14.734ZM 167.779 7.65C 167.58 8.72333 167.15 9.65867 166.491 10.456C 165.832 11.238 165.011 11.8207 164.03 12.204L 166.376 18L 162.65 18L 160.557 12.71L 158.556 12.71L 157.636 18L 153.956 18L 156.785 1.9L 162.995 1.9C 164.528 1.9 165.778 2.48267 166.744 3.648C 167.71 4.798 168.055 6.132 167.779 7.65ZM 163.317 8.915C 163.731 8.51633 163.992 8.018 164.099 7.42C 164.206 6.822 164.099 6.33133 163.777 5.948C 163.47 5.54933 163.01 5.35 162.397 5.35L 159.867 5.35L 159.131 9.49L 161.891 9.49C 162.443 9.49 162.918 9.29833 163.317 8.915ZM 181.161 1.9L 180.54 5.442L 176.4 5.442L 174.192 18L 170.512 18L 172.72 5.442L 168.58 5.442L 169.201 1.9L 181.161 1.9ZM 185.336 18.322C 183.649 18.322 182.277 17.9693 181.219 17.264C 180.176 16.5433 179.509 15.5697 179.218 14.343L 182.576 12.618C 182.975 14.0593 184.002 14.78 185.658 14.78C 187.069 14.78 187.858 14.3277 188.027 13.423C 188.119 12.963 187.958 12.6027 187.544 12.342C 187.145 12.066 186.432 11.7517 185.405 11.399C 183.887 10.893 182.752 10.249 182.001 9.467C 181.265 8.66967 181.02 7.558 181.265 6.132C 181.51 4.62933 182.2 3.49467 183.335 2.728C 184.47 1.96133 185.781 1.578 187.268 1.578C 188.587 1.578 189.729 1.89233 190.695 2.521C 191.676 3.14967 192.374 4.04667 192.788 5.212L 189.568 6.914C 189.001 5.718 188.127 5.12 186.946 5.12C 186.394 5.12 185.949 5.235 185.612 5.465C 185.29 5.695 185.091 5.98633 185.014 6.339C 184.922 6.78367 185.068 7.15167 185.451 7.443C 185.85 7.719 186.532 8.03333 187.498 8.386C 187.789 8.49333 188.027 8.58533 188.211 8.662C 188.41 8.72333 188.648 8.81533 188.924 8.938C 189.2 9.04533 189.422 9.15267 189.591 9.26C 189.775 9.352 189.982 9.47467 190.212 9.628C 190.457 9.766 190.649 9.91167 190.787 10.065C 190.94 10.2183 191.094 10.3947 191.247 10.594C 191.416 10.778 191.538 10.985 191.615 11.215C 191.707 11.4297 191.784 11.6673 191.845 11.928C 191.906 12.1733 191.929 12.4493 191.914 12.756C 191.914 13.0627 191.883 13.3923 191.822 13.745C 191.561 15.217 190.848 16.3517 189.683 17.149C 188.533 17.931 187.084 18.322 185.336 18.322Z"/>
<path id="path1_fill" fill-rule="evenodd" d="M 36.3552 14.6503C 35.9392 16.1899 34.7515 18.0645 29.8824 18.0645L 19.5096 18.0645L 21.2319 11.3548L 31.6046 11.3548C 36.5333 11.3548 36.7708 12.9326 36.3552 14.6503ZM 33.98 32.5755C 33.5049 34.5889 32.1393 36.6452 26.498 36.6452L 14.9376 36.6452L 16.9569 28.3871L 28.4573 28.3871C 34.099 28.3871 34.5141 30.5022 33.98 32.5755ZM 49.5737 14.3917C 51.5335 6.5151 46.7466 0 34.9891 0L 9.5349 0.0340645L 0 38.528L 5.53309 48L 23.6476 48C 35.5242 48 44.7041 42.4785 47.0794 32.8841C 48.267 27.9685 46.8952 24.5197 43.7902 22.8021L 43.7902 22.6834C 46.8952 20.7293 48.7421 17.7084 49.5737 14.3917Z"/>
<path id="path2_fill" fill-rule="evenodd" d="M 19.1565 29.4194L 42.1848 29.4194L 44.8149 18.0645L 21.93 18.0645L 23.6999 11.3548L 46.3699 11.3548L 49 0L 11.8003 0L 0 48L 42.1277 48L 44.9003 36.6452L 17.4457 36.6452L 19.1565 29.4194Z"/>
<path id="path3_fill" fill-rule="evenodd" d="M 2.64208 0L 0 11.3548L 13.8209 11.3548L 4.74799 48L 19.2698 48L 28.3583 11.3548L 43.1554 11.3548L 46 0L 2.64208 0Z"/>
<path id="path4_fill" fill-rule="evenodd" d="M 26.6393 5.70219L 26.5741 5.58932C 23.2159 0.568219 18.0329 0.00751905 15.3717 0.020119C 14.5668 -0.00718095 14.0594 0.00121905 14.0594 0.00121905L 0 0.00121905L 11.4643 20.0972L 26.6393 5.70219Z"/>
<path id="path5_fill" fill-rule="evenodd" d="M 67.8262 27.8063L 63.1667 19.9997L 85.7389 0L 64.7147 0.00153191L 15.7488 45.0107L 26.936 0L 15.1422 0L 0 13.7745L 0.16891 26.4255L 4.46119 22.1071L 8.3281 18.3733L 6.86249 22.2041L 0.545353 47.4894L 13.0529 47.4894L 32.9483 47.4914L 47.8994 34.2659L 52.9235 42.7394C 54.559 44.8759 57.054 47.4894 67.3179 47.4894L 79.394 47.4894L 67.8416 27.7971L 67.8262 27.8063Z"/>
</defs>
</svg>
