<svg width="130" height="45" viewBox="0 0 130 45" version="1.1" xmlns="http://www.w3.org/2000/svg" xmlns:xlink="http://www.w3.org/1999/xlink">
<title>App Store</title>
<desc>Created using Figma</desc>
<g id="Canvas" transform="translate(-1462 -841)">
<g id="App Store">
<g id="Rectangle 2" opacity="0.803668">
<use xlink:href="#path0_fill" transform="translate(1462 841)" fill="#FFFFFF"/>
</g>
</g>
</g>
<defs>
<path id="path0_fill" fill-rule="evenodd" d="M 0 6C 0 2.68629 2.68629 0 6 0L 123.474 0C 126.787 0 129.474 2.68629 129.474 6L 129.474 39C 129.474 42.3137 126.787 45 123.474 45L 6 45C 2.68629 45 0 42.3137 0 39L 0 6ZM 27.3848 10.2632C 26.0202 10.3418 24.4659 11.1097 23.5361 12.0765C 22.6942 12.9554 22.005 14.2506 22.2779 15.5181C 23.7628 15.5551 25.2708 14.8011 26.1636 13.8158C 26.9962 12.8953 27.6115 11.5908 27.3848 10.2632ZM 27.4588 15.5181C 25.3171 15.5181 24.4289 16.8503 22.944 16.8503C 21.4175 16.8503 20.0159 15.5921 18.1702 15.5921C 15.6583 15.5921 11.842 17.9513 11.842 23.4375C 11.842 28.4287 16.3568 33.9473 18.9103 33.9473C 20.4599 33.9612 20.8393 32.9574 22.944 32.9482C 25.0488 32.9343 25.4975 33.9612 27.0517 33.9473C 28.8003 33.9335 30.1603 32.0276 31.1595 30.5057C 31.8765 29.414 32.1587 28.8497 32.7138 27.6192C 28.6014 26.5784 27.7826 19.9218 32.7138 18.5526C 31.784 16.9659 29.0732 15.5181 27.4588 15.5181ZM 48.4092 16.9236C 49.6163 16.9236 50.2242 16.1578 50.2242 14.848C 50.2242 13.547 49.6163 12.8207 48.4092 12.8207L 47.8171 12.8207L 47.8171 16.9236L 48.4092 16.9236ZM 47.1626 12.2838L 48.4565 12.2838C 50.0505 12.2838 50.9023 13.2075 50.9023 14.848C 50.9023 16.4972 50.0505 17.4604 48.4881 17.4604L 47.1626 17.4604L 47.1626 12.2838ZM 54.5508 15.5504C 54.5508 14.667 54.1087 14.067 53.4463 14.067C 52.7911 14.067 52.3411 14.667 52.3411 15.5504C 52.3411 16.426 52.7911 17.0181 53.4463 17.0181C 54.1087 17.0181 54.5508 16.426 54.5508 15.5504ZM 51.6709 15.5504C 51.6709 14.2644 52.507 13.5302 53.4464 13.5302C 54.3851 13.5302 55.222 14.2644 55.222 15.5504C 55.222 16.8207 54.3851 17.5549 53.4464 17.5549C 52.507 17.5549 51.6709 16.8207 51.6709 15.5504ZM 55.7759 13.6254L 56.439 13.6254L 57.0067 15.843C 57.0935 16.2062 57.1646 16.5527 57.2356 16.908L 57.2672 16.908C 57.354 16.5527 57.433 16.1975 57.5277 15.843L 58.119 13.6254L 58.7506 13.6254L 59.3506 15.843C 59.4446 16.2062 59.5314 16.5527 59.619 16.908L 59.6498 16.908C 59.7375 16.5527 59.8077 16.2062 59.8867 15.843L 60.4472 13.6254L 61.0622 13.6254L 60.0367 17.4598L 59.2472 17.4598L 58.6954 15.4009C 58.6006 15.0377 58.5296 14.6833 58.4348 14.2964L 58.4032 14.2964C 58.3164 14.6833 58.2375 15.0456 58.1348 15.4088L 57.5988 17.4598L 56.8417 17.4598L 55.7759 13.6254ZM 61.9016 13.6254L 62.4385 13.6254L 62.4937 14.1772L 62.5174 14.1772C 62.8806 13.8148 63.2745 13.5306 63.8035 13.5306C 64.6079 13.5306 64.9711 14.0517 64.9711 15.0299L 64.9711 17.4599L 64.3237 17.4599L 64.3237 15.1167C 64.3237 14.3983 64.1035 14.0912 63.5982 14.0912C 63.2035 14.0912 62.9358 14.2964 62.549 14.6833L 62.549 17.4599L 61.9016 17.4599L 61.9016 13.6254ZM 66.2202 16.6869L 66.2202 11.8419L 66.8676 11.8419L 66.8676 16.7342C 66.8676 16.9395 66.9544 17.0184 67.0492 17.0184C 67.0886 17.0184 67.1202 17.0184 67.1905 17.0019L 67.2773 17.4921C 67.1905 17.5308 67.0807 17.5553 66.9071 17.5553C 66.4176 17.5553 66.2202 17.2474 66.2202 16.6869ZM 70.8294 15.5504C 70.8294 14.667 70.3873 14.067 69.7249 14.067C 69.0696 14.067 68.6196 14.667 68.6196 15.5504C 68.6196 16.426 69.0696 17.0181 69.7249 17.0181C 70.3873 17.0181 70.8294 16.426 70.8294 15.5504ZM 67.9495 15.5504C 67.9495 14.2644 68.7855 13.5302 69.725 13.5302C 70.6637 13.5302 71.4997 14.2644 71.4997 15.5504C 71.4997 16.8207 70.6637 17.5549 69.725 17.5549C 68.7855 17.5549 67.9495 16.8207 67.9495 15.5504ZM 74.6268 16.5211L 74.6268 15.4553C 73.3486 15.6139 72.9065 15.9297 72.9065 16.4184C 72.9065 16.8526 73.2065 17.0334 73.5854 17.0334C 73.9557 17.0334 74.2557 16.8526 74.6268 16.5211ZM 72.2749 16.4658C 72.2749 15.6298 72.9933 15.2114 74.6267 15.0298C 74.6267 14.5403 74.4688 14.0674 73.8373 14.0674C 73.396 14.0674 72.9933 14.2719 72.6933 14.4772L 72.4407 14.0279C 72.796 13.799 73.3328 13.5306 73.9486 13.5306C 74.8873 13.5306 75.282 14.1543 75.282 15.1087L 75.282 17.4598L 74.7452 17.4598L 74.6899 17.0019L 74.6662 17.0019C 74.3031 17.3019 73.8775 17.5553 73.396 17.5553C 72.7565 17.5553 72.2749 17.1527 72.2749 16.4658ZM 78.9216 16.4818L 78.9216 14.4773C 78.5979 14.186 78.3058 14.0746 77.9908 14.0746C 77.375 14.0746 76.8855 14.6668 76.8855 15.5431C 76.8855 16.4581 77.2723 17.0107 77.9434 17.0107C 78.2979 17.0107 78.6058 16.8362 78.9216 16.4818ZM 76.2153 15.5502C 76.2153 14.3036 77.004 13.5307 77.8803 13.5307C 78.3216 13.5307 78.6138 13.6965 78.9532 13.972L 78.9216 13.3176L 78.9216 11.842L 79.5769 11.842L 79.5769 17.4599L 79.0401 17.4599L 78.9848 17.0107L 78.9611 17.0107C 78.6611 17.302 78.2506 17.5547 77.8014 17.5547C 76.8382 17.5547 76.2153 16.8284 76.2153 15.5502ZM 85.0476 15.5504C 85.0476 14.667 84.6055 14.067 83.9432 14.067C 83.2879 14.067 82.8379 14.667 82.8379 15.5504C 82.8379 16.426 83.2879 17.0181 83.9432 17.0181C 84.6055 17.0181 85.0476 16.426 85.0476 15.5504ZM 82.1677 15.5504C 82.1677 14.2644 83.0038 13.5302 83.9433 13.5302C 84.8819 13.5302 85.718 14.2644 85.718 15.5504C 85.718 16.8207 84.8819 17.5549 83.9433 17.5549C 83.0038 17.5549 82.1677 16.8207 82.1677 15.5504ZM 86.7302 13.6254L 87.2671 13.6254L 87.3223 14.1772L 87.346 14.1772C 87.7092 13.8148 88.1031 13.5306 88.6321 13.5306C 89.4365 13.5306 89.7997 14.0517 89.7997 15.0299L 89.7997 17.4599L 89.1523 17.4599L 89.1523 15.1167C 89.1523 14.3983 88.9321 14.0912 88.4268 14.0912C 88.0321 14.0912 87.7644 14.2964 87.3776 14.6833L 87.3776 17.4599L 86.7302 17.4599L 86.7302 13.6254ZM 92.7386 16.2767L 92.7386 14.1546L 92.1702 14.1546L 92.1702 13.6644L 92.7702 13.6257L 92.8491 12.552L 93.3939 12.552L 93.3939 13.6257L 94.4273 13.6257L 94.4273 14.1546L 93.3939 14.1546L 93.3939 16.2846C 93.3939 16.7575 93.5439 17.0259 93.9852 17.0259C 94.1194 17.0259 94.2931 16.9707 94.4194 16.9233L 94.5457 17.4128C 94.3325 17.4838 94.072 17.5549 93.8352 17.5549C 93.0149 17.5549 92.7386 17.0338 92.7386 16.2767ZM 95.2961 11.8421L 95.9435 11.8421L 95.9435 13.3729L 95.9198 14.1616C 96.283 13.815 96.669 13.5308 97.198 13.5308C 98.0025 13.5308 98.3656 14.0518 98.3656 15.03L 98.3656 17.46L 97.7182 17.46L 97.7182 15.116C 97.7182 14.3984 97.498 14.0913 96.9927 14.0913C 96.598 14.0913 96.3304 14.2958 95.9435 14.6834L 95.9435 17.46L 95.2961 17.46L 95.2961 11.8421ZM 101.99 15.2351C 101.99 14.4622 101.642 14.0438 101.043 14.0438C 100.506 14.0438 100.017 14.4772 99.938 15.2351L 101.99 15.2351ZM 99.3071 15.5501C 99.3071 14.2964 100.151 13.5306 101.027 13.5306C 102.006 13.5306 102.558 14.2325 102.558 15.3299C 102.558 15.4641 102.549 15.6062 102.534 15.7009L 99.9466 15.7009C 99.9932 16.5133 100.491 17.0335 101.224 17.0335C 101.587 17.0335 101.895 16.9159 102.179 16.7335L 102.408 17.1599C 102.077 17.373 101.666 17.5546 101.146 17.5546C 100.119 17.5546 99.3071 16.8054 99.3071 15.5501ZM 52.4538 28.2753L 51.7907 26.3324C 51.3644 25.1008 51.0012 24.0114 50.638 22.7324L 50.5749 22.7324C 50.2117 24.0114 49.8478 25.1008 49.4215 26.3324L 48.7583 28.2753L 52.4538 28.2753ZM 52.6591 28.8911L 48.5372 28.8911L 47.3057 32.4603L 46.5793 32.4603L 50.2425 22.0527L 50.9696 22.0527L 54.6336 32.4603L 53.8749 32.4603L 52.6591 28.8911ZM 56.9053 31.0547C 57.7737 31.7652 58.5632 32.0336 59.1474 32.0336C 60.6797 32.0336 61.785 30.6118 61.785 28.5592C 61.785 26.696 61.1219 25.3065 59.385 25.3065C 58.6263 25.3065 57.8211 25.7478 56.9053 26.5539L 56.9053 31.0547ZM 56.2107 24.8802L 56.8107 24.8802L 56.8739 25.8276L 56.9212 25.8276C 57.6633 25.2434 58.5633 24.6899 59.4957 24.6899C 61.5167 24.6899 62.5281 26.2057 62.5281 28.5592C 62.5281 31.1336 60.9641 32.6502 59.1791 32.6502C 58.4686 32.6502 57.6949 32.302 56.9054 31.7178L 56.9054 35.887L 56.2107 35.887L 56.2107 24.8802ZM 65.4946 31.0547C 66.3631 31.7652 67.1525 32.0336 67.7367 32.0336C 69.2691 32.0336 70.3744 30.6118 70.3744 28.5592C 70.3744 26.696 69.7112 25.3065 67.9744 25.3065C 67.2157 25.3065 66.4104 25.7478 65.4946 26.5539L 65.4946 31.0547ZM 64.8 24.8802L 65.4 24.8802L 65.4632 25.8276L 65.5106 25.8276C 66.2527 25.2434 67.1527 24.6899 68.0851 24.6899C 70.1061 24.6899 71.1174 26.2057 71.1174 28.5592C 71.1174 31.1336 69.5535 32.6502 67.7685 32.6502C 67.0579 32.6502 66.2843 32.302 65.4948 31.7178L 65.4948 35.887L 64.8 35.887L 64.8 24.8802ZM 75.8208 31.0862L 76.2945 30.5802C 77.0524 31.4336 78.1419 31.9862 79.3426 31.9862C 80.9374 31.9862 81.9321 31.1336 81.9321 29.902C 81.9321 28.5907 81.0953 28.1802 80.069 27.7223L 78.4892 27.0117C 77.5892 26.617 76.3734 25.9696 76.3734 24.4215C 76.3734 22.9207 77.6682 21.8628 79.4058 21.8628C 80.6532 21.8628 81.6637 22.4312 82.2961 23.1102L 81.8855 23.5846C 81.269 22.9523 80.4479 22.526 79.4058 22.526C 78.0313 22.526 77.0997 23.2531 77.0997 24.3899C 77.0997 25.5899 78.1419 26.0478 78.8997 26.396L 80.4795 27.0899C 81.6479 27.6117 82.675 28.2591 82.675 29.8538C 82.675 31.4494 81.3637 32.6494 79.3426 32.6494C 77.8269 32.6494 76.6419 32.002 75.8208 31.0862ZM 84.9472 30.36L 84.9472 25.4795L 83.7629 25.4795L 83.7629 24.9426L 84.9629 24.8803L 85.0577 22.684L 85.6577 22.684L 85.6577 24.8803L 87.8532 24.8803L 87.8532 25.4795L 85.6577 25.4795L 85.6577 30.4232C 85.6577 31.3863 85.8945 32.0337 86.9374 32.0337C 87.2208 32.0337 87.6164 31.9232 87.8848 31.7969L 88.0743 32.3653C 87.6314 32.5232 87.1577 32.6495 86.8419 32.6495C 85.3735 32.6495 84.9472 31.7179 84.9472 30.36ZM 95.1479 28.6855C 95.1479 26.6802 93.9952 25.3065 92.4636 25.3065C 90.9313 25.3065 89.7944 26.6802 89.7944 28.6855C 89.7944 30.6757 90.9313 32.0336 92.4636 32.0336C 93.9952 32.0336 95.1479 30.6757 95.1479 28.6855ZM 89.0671 28.6855C 89.0671 26.1426 90.6469 24.6899 92.4635 24.6899C 94.295 24.6899 95.874 26.1426 95.874 28.6855C 95.874 31.1968 94.295 32.6494 92.4635 32.6494C 90.6469 32.6494 89.0671 31.1968 89.0671 28.6855ZM 98.1465 24.88L 98.7465 24.88L 98.8096 26.2852L 98.857 26.2852C 99.3631 25.3536 100.104 24.6905 101.005 24.6905C 101.289 24.6905 101.51 24.7221 101.763 24.8484L 101.605 25.48C 101.353 25.3852 101.21 25.3536 100.91 25.3536C 100.231 25.3536 99.4262 25.8747 98.8412 27.2965L 98.8412 32.4605L 98.1465 32.4605L 98.1465 24.88ZM 108.063 28.1959C 108.063 26.2538 107.195 25.2899 105.837 25.2899C 104.541 25.2899 103.389 26.3801 103.231 28.1959L 108.063 28.1959ZM 102.52 28.6854C 102.52 26.2056 104.131 24.6906 105.821 24.6906C 107.621 24.6906 108.726 25.9696 108.726 28.1959C 108.726 28.3853 108.726 28.5748 108.695 28.7651L 103.231 28.7651C 103.262 30.6756 104.383 32.0493 106.089 32.0493C 106.91 32.0493 107.558 31.7809 108.126 31.3703L 108.41 31.9072C 107.81 32.2704 107.131 32.6501 106.025 32.6501C 104.083 32.6501 102.52 31.1651 102.52 28.6854Z"/>
</defs>
</svg>
