<svg width="143" height="45" viewBox="0 0 143 45" version="1.1" xmlns="http://www.w3.org/2000/svg" xmlns:xlink="http://www.w3.org/1999/xlink">
<title>Google play</title>
<desc>Created using Figma</desc>
<g id="Canvas" transform="translate(-1626 -841)">
<g id="Google play">
<g id="Rectangle 2" opacity="0.803668">
<use xlink:href="#path0_fill" transform="translate(1626 841)" fill="#FFFFFF"/>
</g>
</g>
</g>
<defs>
<path id="path0_fill" fill-rule="evenodd" d="M 0 6C 0 2.68629 2.68629 0 6 0L 136.105 0C 139.419 0 142.105 2.68629 142.105 6L 142.105 39C 142.105 42.3137 139.419 45 136.105 45L 6 45C 2.68629 45 0 42.3137 0 39L 0 6ZM 14.7487 11.0624C 14.5917 11.04 14.4303 11.0579 14.2822 11.0983L 24.9042 21.7203L 27.5597 19.1007L 15.1794 11.2418C 15.0313 11.1476 14.9057 11.0848 14.7487 11.0624ZM 13.457 11.9236C 13.4301 12.0178 13.4211 12.1076 13.4211 12.2107L 13.4211 32.8806C 13.4211 32.9838 13.4301 33.0735 13.457 33.1677L 24.079 22.5457L 13.457 11.9236ZM 28.5288 19.7108L 25.7297 22.5457L 28.5288 25.3806L 31.4355 23.5146C 32.1352 23.0615 32.1352 22.0298 31.4355 21.5768L 28.5288 19.7108ZM 24.9042 23.371L 14.2822 33.993C 14.5783 34.0738 14.8833 34.0379 15.1794 33.8495L 27.5597 25.9907L 24.9042 23.371ZM 49.4671 15.3531L 49.2223 14.5644C 49.0329 13.9881 48.8671 13.4205 48.7021 12.8205L 48.6705 12.8205C 48.5126 13.4205 48.3468 13.9881 48.1573 14.5644L 47.9126 15.3531L 49.4671 15.3531ZM 49.6328 15.8821L 47.7467 15.8821L 47.2494 17.4602L 46.5791 17.4602L 48.3309 12.2836L 49.0723 12.2836L 50.8241 17.4602L 50.1223 17.4602L 49.6328 15.8821ZM 51.4971 13.6254L 52.0339 13.6254L 52.0892 14.1772L 52.1129 14.1772C 52.476 13.8148 52.87 13.5306 53.3989 13.5306C 54.2034 13.5306 54.5665 14.0517 54.5665 15.0299L 54.5665 17.4599L 53.9192 17.4599L 53.9192 15.1167C 53.9192 14.3983 53.6989 14.0912 53.1936 14.0912C 52.7989 14.0912 52.5313 14.2964 52.1444 14.6833L 52.1444 17.4599L 51.4971 17.4599L 51.4971 13.6254ZM 58.2455 16.4818L 58.2455 14.4773C 57.9218 14.186 57.6297 14.0746 57.3139 14.0746C 56.6989 14.0746 56.2095 14.6668 56.2095 15.5431C 56.2095 16.4581 56.5963 17.0107 57.2674 17.0107C 57.6218 17.0107 57.9297 16.8362 58.2455 16.4818ZM 55.5393 15.5502C 55.5393 14.3036 56.328 13.5307 57.2043 13.5307C 57.6456 13.5307 57.9377 13.6965 58.2772 13.972L 58.2456 13.3176L 58.2456 11.842L 58.9009 11.842L 58.9009 17.4599L 58.364 17.4599L 58.3088 17.0107L 58.2851 17.0107C 57.9851 17.302 57.5746 17.5547 57.1254 17.5547C 56.1622 17.5547 55.5393 16.8284 55.5393 15.5502ZM 60.197 13.6254L 60.7339 13.6254L 60.7891 14.3201L 60.8128 14.3201C 61.0725 13.8385 61.4673 13.5306 61.9015 13.5306C 62.0673 13.5306 62.1857 13.5543 62.312 13.6096L 62.1857 14.1772C 62.0594 14.1377 61.9725 14.1149 61.8147 14.1149C 61.491 14.1149 61.1041 14.3517 60.8444 14.9983L 60.8444 17.4599L 60.197 17.4599L 60.197 13.6254ZM 65.5325 15.5505C 65.5325 14.6671 65.0904 14.0671 64.428 14.0671C 63.7728 14.0671 63.3228 14.6671 63.3228 15.5505C 63.3228 16.426 63.7728 17.0181 64.428 17.0181C 65.0904 17.0181 65.5325 16.426 65.5325 15.5505ZM 62.6526 15.5505C 62.6526 14.2644 63.4886 13.5302 64.4281 13.5302C 65.3668 13.5302 66.2029 14.2644 66.2029 15.5505C 66.2029 16.8207 65.3668 17.5549 64.4281 17.5549C 63.4886 17.5549 62.6526 16.8207 62.6526 15.5505ZM 67.2151 17.4595L 67.8625 17.4595L 67.8625 13.625L 67.2151 13.625L 67.2151 17.4595ZM 67.0967 12.4179C 67.0967 12.166 67.294 12.0002 67.5467 12.0002C 67.7993 12.0002 67.9967 12.166 67.9967 12.4179C 67.9967 12.6634 67.7993 12.8363 67.5467 12.8363C 67.294 12.8363 67.0967 12.6634 67.0967 12.4179ZM 71.5876 16.4818L 71.5876 14.4773C 71.2639 14.186 70.9718 14.0746 70.6568 14.0746C 70.041 14.0746 69.5515 14.6668 69.5515 15.5431C 69.5515 16.4581 69.9384 17.0107 70.6094 17.0107C 70.9639 17.0107 71.2718 16.8362 71.5876 16.4818ZM 68.8813 15.5502C 68.8813 14.3036 69.67 13.5307 70.5463 13.5307C 70.9877 13.5307 71.2798 13.6965 71.6192 13.972L 71.5877 13.3176L 71.5877 11.842L 72.2429 11.842L 72.2429 17.4599L 71.7061 17.4599L 71.6508 17.0107L 71.6271 17.0107C 71.3271 17.302 70.9166 17.5547 70.4674 17.5547C 69.5042 17.5547 68.8813 16.8284 68.8813 15.5502ZM 77.2322 16.5212L 77.2322 15.4554C 75.9541 15.6141 75.512 15.9299 75.512 16.4185C 75.512 16.8528 75.812 17.0335 76.1909 17.0335C 76.5612 17.0335 76.8612 16.8528 77.2322 16.5212ZM 74.8804 16.4659C 74.8804 15.6299 75.5988 15.2114 77.2322 15.0299C 77.2322 14.5404 77.0743 14.0675 76.4427 14.0675C 76.0014 14.0675 75.5988 14.272 75.2988 14.4772L 75.0462 14.028C 75.4014 13.7991 75.9383 13.5306 76.5541 13.5306C 77.4927 13.5306 77.8875 14.1543 77.8875 15.1088L 77.8875 17.4599L 77.3506 17.4599L 77.2954 17.002L 77.2717 17.002C 76.9085 17.302 76.483 17.5554 76.0014 17.5554C 75.362 17.5554 74.8804 17.1527 74.8804 16.4659ZM 81.7795 15.4873C 81.7795 14.6433 81.4952 14.0749 80.7697 14.0749C 80.446 14.0749 80.1224 14.2565 79.7434 14.5959L 79.7434 16.6083C 80.0908 16.8996 80.4303 17.0109 80.6829 17.0109C 81.3137 17.0109 81.7795 16.4346 81.7795 15.4873ZM 79.0969 13.6257L 79.633 13.6257L 79.689 14.067L 79.7119 14.067C 80.0593 13.7757 80.4856 13.5302 80.9356 13.5302C 81.9217 13.5302 82.4506 14.2959 82.4506 15.4873C 82.4506 16.7891 81.669 17.5549 80.7927 17.5549C 80.4382 17.5549 80.083 17.3891 79.7277 17.1136L 79.7435 17.7838L 79.7435 19.0778L 79.0969 19.0778L 79.0969 13.6257ZM 86.1611 15.4873C 86.1611 14.6433 85.8768 14.0749 85.1513 14.0749C 84.8276 14.0749 84.5039 14.2565 84.125 14.5959L 84.125 16.6083C 84.4724 16.8996 84.8118 17.0109 85.0645 17.0109C 85.6953 17.0109 86.1611 16.4346 86.1611 15.4873ZM 83.4783 13.6257L 84.0143 13.6257L 84.0704 14.067L 84.0933 14.067C 84.4406 13.7757 84.867 13.5302 85.317 13.5302C 86.303 13.5302 86.832 14.2959 86.832 15.4873C 86.832 16.7891 86.0504 17.5549 85.1741 17.5549C 84.8196 17.5549 84.4643 17.3891 84.1091 17.1136L 84.1248 17.7838L 84.1248 19.0778L 83.4783 19.0778L 83.4783 13.6257ZM 92.0344 15.5505C 92.0344 14.6671 91.5923 14.0671 90.93 14.0671C 90.2747 14.0671 89.8247 14.6671 89.8247 15.5505C 89.8247 16.426 90.2747 17.0181 90.93 17.0181C 91.5923 17.0181 92.0344 16.426 92.0344 15.5505ZM 89.1545 15.5505C 89.1545 14.2644 89.9906 13.5302 90.9301 13.5302C 91.8688 13.5302 92.7048 14.2644 92.7048 15.5505C 92.7048 16.8207 91.8688 17.5549 90.9301 17.5549C 89.9906 17.5549 89.1545 16.8207 89.1545 15.5505ZM 93.7173 13.6254L 94.2541 13.6254L 94.3094 14.1772L 94.3331 14.1772C 94.6962 13.8148 95.0902 13.5306 95.6191 13.5306C 96.4236 13.5306 96.7868 14.0517 96.7868 15.0299L 96.7868 17.4599L 96.1394 17.4599L 96.1394 15.1167C 96.1394 14.3983 95.9191 14.0912 95.4139 14.0912C 95.0191 14.0912 94.7515 14.2964 94.3647 14.6833L 94.3647 17.4599L 93.7173 17.4599L 93.7173 13.6254ZM 47.4238 27.233C 47.4238 23.9314 49.272 21.863 52.0194 21.863C 53.4254 21.863 54.3096 22.5261 54.8623 23.1103L 54.4359 23.5998C 53.8991 23.0156 53.1728 22.5261 52.0351 22.5261C 49.6509 22.5261 48.1817 24.3427 48.1817 27.233C 48.1817 30.1224 49.572 31.9864 51.9404 31.9864C 52.8878 31.9864 53.7728 31.7022 54.278 31.1969L 54.278 27.9593L 51.7825 27.9593L 51.7825 27.3435L 54.9728 27.3435L 54.9728 31.4646C 54.3254 32.1601 53.2517 32.6496 51.893 32.6496C 49.2088 32.6496 47.4238 30.5488 47.4238 27.233ZM 63.0094 28.6855C 63.0094 26.6803 61.8568 25.3066 60.3252 25.3066C 58.7928 25.3066 57.656 26.6803 57.656 28.6855C 57.656 30.6758 58.7928 32.0337 60.3252 32.0337C 61.8568 32.0337 63.0094 30.6758 63.0094 28.6855ZM 56.929 28.6855C 56.929 26.1426 58.5087 24.69 60.3253 24.69C 62.1568 24.69 63.7358 26.1426 63.7358 28.6855C 63.7358 31.1968 62.1568 32.6495 60.3253 32.6495C 58.5087 32.6495 56.929 31.1968 56.929 28.6855ZM 71.4567 28.6855C 71.4567 26.6803 70.3041 25.3066 68.7725 25.3066C 67.2401 25.3066 66.1033 26.6803 66.1033 28.6855C 66.1033 30.6758 67.2401 32.0337 68.7725 32.0337C 70.3041 32.0337 71.4567 30.6758 71.4567 28.6855ZM 65.376 28.6855C 65.376 26.1426 66.9557 24.69 68.7723 24.69C 70.6039 24.69 72.1828 26.1426 72.1828 28.6855C 72.1828 31.1968 70.6039 32.6495 68.7723 32.6495C 66.9557 32.6495 65.376 31.1968 65.376 28.6855ZM 78.7827 27.3595C 78.7827 26.0797 77.8977 25.2587 76.824 25.2587C 75.7503 25.2587 74.8503 26.0639 74.8503 27.3595C 74.8503 28.6384 75.7661 29.491 76.824 29.491C 77.8661 29.491 78.7827 28.6384 78.7827 27.3595ZM 79.8091 33.6287C 79.8091 32.7918 79.1934 32.4753 78.0565 32.4753L 76.4294 32.4753C 76.2715 32.4753 75.8768 32.4445 75.482 32.3497C 74.7865 32.8234 74.4873 33.4076 74.4873 33.9453C 74.4873 34.8926 75.4031 35.5392 77.0136 35.5392C 78.7197 35.5392 79.8091 34.5768 79.8091 33.6287ZM 73.8232 34.0076C 73.8232 33.3445 74.2504 32.6813 74.9451 32.176L 74.9451 32.1129C 74.5661 31.8918 74.2811 31.4813 74.2811 30.8963C 74.2811 30.2174 74.7714 29.7445 75.103 29.5068L 75.103 29.4437C 74.6293 29.0331 74.1556 28.2752 74.1556 27.3595C 74.1556 25.7963 75.3398 24.6902 76.824 24.6902C 77.2353 24.6902 77.5819 24.785 77.8188 24.8797L 80.3932 24.8797L 80.3932 25.4639L 78.6248 25.4639C 79.1143 25.8902 79.4617 26.5692 79.4617 27.3752C 79.4617 28.9226 78.3082 30.0437 76.824 30.0437C 76.3977 30.0437 75.9082 29.9331 75.5609 29.7279C 75.2293 29.9963 74.9451 30.3121 74.9451 30.8181C 74.9451 31.3708 75.2609 31.8129 76.3977 31.8129L 78.0248 31.8129C 79.7301 31.8129 80.5196 32.3497 80.5196 33.5497C 80.5196 34.861 79.1143 36.1084 76.9346 36.1084C 75.024 36.1084 73.8232 35.2874 73.8232 34.0076ZM 82.1445 31.4494L 82.1445 21.1049L 82.8393 21.1049L 82.8393 31.5441C 82.8393 31.8757 82.9814 32.0336 83.1708 32.0336C 83.234 32.0336 83.2972 32.0336 83.4558 32.002L 83.5814 32.5704C 83.4401 32.6178 83.2972 32.6502 83.0761 32.6502C 82.4603 32.6502 82.1445 32.2704 82.1445 31.4494ZM 90.7984 28.1959C 90.7984 26.2538 89.93 25.2899 88.5721 25.2899C 87.2766 25.2899 86.124 26.3801 85.9661 28.1959L 90.7984 28.1959ZM 85.2554 28.6854C 85.2554 26.2056 86.8659 24.6906 88.5562 24.6906C 90.3562 24.6906 91.4614 25.9696 91.4614 28.1959C 91.4614 28.3853 91.4614 28.5748 91.4298 28.7651L 85.9659 28.7651C 85.9975 30.6756 87.1185 32.0493 88.8246 32.0493C 89.6456 32.0493 90.293 31.7809 90.8614 31.3703L 91.1456 31.9072C 90.5456 32.2704 89.8667 32.6501 88.7606 32.6501C 86.8185 32.6501 85.2554 31.1651 85.2554 28.6854ZM 99.261 27.3748C 101.378 27.3748 102.404 26.6643 102.404 24.9582C 102.404 23.2056 101.346 22.6688 99.1979 22.6688L 97.4768 22.6688L 97.4768 27.3748L 99.261 27.3748ZM 96.7495 22.053L 99.3714 22.053C 101.725 22.053 103.146 22.8109 103.146 24.9582C 103.146 26.9959 101.756 27.9906 99.4345 27.9906L 97.4766 27.9906L 97.4766 32.4598L 96.7495 32.4598L 96.7495 22.053ZM 105.339 31.4494L 105.339 21.1049L 106.034 21.1049L 106.034 31.5441C 106.034 31.8757 106.176 32.0336 106.366 32.0336C 106.429 32.0336 106.492 32.0336 106.651 32.002L 106.776 32.5704C 106.635 32.6178 106.492 32.6502 106.271 32.6502C 105.655 32.6502 105.339 32.2704 105.339 31.4494ZM 113.44 30.818L 113.44 28.2435C 110.313 28.6067 109.255 29.333 109.255 30.5338C 109.255 31.6233 109.997 32.0496 110.866 32.0496C 111.734 32.0496 112.492 31.6233 113.44 30.818ZM 108.544 30.5653C 108.544 28.8916 110.061 28.0856 113.44 27.7066C 113.456 26.554 113.14 25.3066 111.639 25.3066C 110.629 25.3066 109.745 25.8111 109.224 26.1909L 108.907 25.6698C 109.444 25.2901 110.503 24.6901 111.734 24.6901C 113.519 24.6901 114.135 25.9848 114.135 27.6111L 114.135 32.4601L 113.535 32.4601L 113.472 31.4811L 113.424 31.4811C 112.651 32.0969 111.734 32.6495 110.739 32.6495C 109.539 32.6495 108.544 32.0022 108.544 30.5653ZM 115.76 35.7607L 115.917 35.1449C 116.075 35.2081 116.312 35.2712 116.533 35.2712C 117.466 35.2712 118.097 34.4186 118.476 33.266L 118.681 32.602L 115.57 24.8802L 116.328 24.8802L 118.16 29.6494C 118.397 30.281 118.697 31.102 118.981 31.7652L 119.045 31.7652C 119.281 31.102 119.534 30.281 119.739 29.6494L 121.366 24.8802L 122.077 24.8802L 119.076 33.4081C 118.65 34.687 117.892 35.9186 116.533 35.9186C 116.249 35.9186 115.965 35.8554 115.76 35.7607Z"/>
</defs>
</svg>
