<svg width="32" height="32" viewBox="0 0 32 32" version="1.1" xmlns="http://www.w3.org/2000/svg" xmlns:xlink="http://www.w3.org/1999/xlink">
<title>Group</title>
<desc>Created using Figma</desc>
<g id="Canvas" transform="translate(-2645 -712)">
<g id="Group">
<g id="Oval 2" opacity="0.302593">
<mask id="mask0_outline_ins">
<use xlink:href="#path0_fill" fill="white" transform="translate(2645 712)"/>
</mask>
<g mask="url(#mask0_outline_ins)">
<use xlink:href="#path1_stroke_2x" transform="translate(2645 712)" fill="#FFFFFF"/>
</g>
</g>
<g id="18+" opacity="0.8">
<use xlink:href="#path2_fill" transform="translate(2651 718)" fill="#FFFFFF"/>
</g>
</g>
</g>
<defs>
<path id="path0_fill" fill-rule="evenodd" d="M 16 32C 24.8366 32 32 24.8366 32 16C 32 7.16344 24.8366 0 16 0C 7.16344 0 0 7.16344 0 16C 0 24.8366 7.16344 32 16 32Z"/>
<path id="path1_stroke_2x" d="M 16 33C 25.3888 33 33 25.3888 33 16L 31 16C 31 24.2843 24.2843 31 16 31L 16 33ZM 33 16C 33 6.61116 25.3888 -1 16 -1L 16 1C 24.2843 1 31 7.71573 31 16L 33 16ZM 16 -1C 6.61116 -1 -1 6.61116 -1 16L 1 16C 1 7.71573 7.71573 1 16 1L 16 -1ZM -1 16C -1 25.3888 6.61116 33 16 33L 16 31C 7.71573 31 1 24.2843 1 16L -1 16Z"/>
<path id="path2_fill" d="M 1.185 15L 6.585 15L 6.585 13.98L 4.605 13.98L 4.605 5.43L 3.66 5.43C 3.135 5.745 2.505 5.985 1.635 6.135L 1.635 6.93L 3.375 6.93L 3.375 13.98L 1.185 13.98L 1.185 15ZM 9.18105 12.435C 9.18105 11.565 9.75105 10.86 10.5161 10.35C 11.8961 10.905 13.1111 11.355 13.1111 12.585C 13.1111 13.575 12.3461 14.265 11.2361 14.265C 10.0661 14.265 9.18105 13.5 9.18105 12.435ZM 11.8811 9.78C 10.7261 9.33 9.67605 8.85 9.67605 7.71C 9.67605 6.78 10.3361 6.165 11.2211 6.165C 12.2711 6.165 12.8861 6.915 12.8861 7.86C 12.8861 8.565 12.5261 9.21 11.8811 9.78ZM 8.07105 12.555C 8.07105 14.07 9.40605 15.18 11.2061 15.18C 13.0661 15.18 14.2961 14.055 14.2961 12.63C 14.2961 11.34 13.4861 10.665 12.6311 10.17L 12.6311 10.11C 13.2161 9.66 13.9511 8.805 13.9511 7.8C 13.9511 6.315 12.9161 5.25 11.2511 5.25C 9.70605 5.25 8.53605 6.24 8.53605 7.71C 8.53605 8.715 9.16605 9.42 9.87105 9.915L 9.87105 9.975C 8.97105 10.455 8.07105 11.31 8.07105 12.555ZM 18.1521 13.44L 19.1271 13.44L 19.1271 10.515L 21.8571 10.515L 21.8571 9.585L 19.1271 9.585L 19.1271 6.66L 18.1521 6.66L 18.1521 9.585L 15.4221 9.585L 15.4221 10.515L 18.1521 10.515L 18.1521 13.44Z"/>
</defs>
</svg>
