<svg width="20" height="20" viewBox="0 0 20 20" version="1.1" xmlns="http://www.w3.org/2000/svg" xmlns:xlink="http://www.w3.org/1999/xlink">
<title>Shape</title>
<desc>Created using Figma</desc>
<g id="Canvas" transform="translate(-2607 -865)">
<g id="Shape" opacity="0.803838">
<use xlink:href="#path0_fill" transform="translate(2607 865)" fill="#FFFFFF"/>
</g>
</g>
<defs>
<path id="path0_fill" fill-rule="evenodd" d="M 2 0L 18 0C 19.1016 0 20 0.898438 20 2L 20 18C 20 19.1016 19.1016 20 18 20L 2 20C 0.898438 20 0 19.1016 0 18L 0 2C 0 0.898438 0.898438 0 2 0ZM 15.6016 7.19922L 15.6016 6.80078C 16.1016 6.39844 16.6016 5.89844 17 5.30078C 16.3984 5.60156 15.8984 5.69922 15.3008 5.80078C 15.8984 5.39844 16.3984 4.89844 16.6016 4.19922C 16.1016 4.5 15.5 4.80078 14.8008 4.89844C 14.3008 4.30078 13.5 4 12.6992 4C 11.1016 4 9.80078 5.30078 9.80078 6.89844C 9.80078 7.06354 9.83032 7.19806 9.85693 7.3194C 9.87866 7.41913 9.89844 7.50995 9.89844 7.60156C 7.5 7.5 5.39844 6.30078 4 4.60156C 3.69922 5 3.60156 5.5 3.60156 6C 3.60156 7 4.10156 7.80078 4.89844 8.5C 4.39844 8.39844 4 8.30078 3.60156 8.10156C 3.60156 9.5 4.60156 10.6016 5.89844 10.8984C 5.60156 11 5.39844 11 5.10156 11C 5.05933 11 5 10.9824 4.93091 10.9618C 4.83398 10.933 4.71777 10.8984 4.60156 10.8984C 5 12 6 12.8984 7.30078 12.8984C 6.30078 13.6016 5 14.1016 3.69922 14.1016L 3 14.1016C 4.30078 14.8984 5.80078 15.3984 7.39844 15.3984C 12.6992 15.3984 15.6016 11 15.6016 7.19922Z"/>
</defs>
</svg>
