<svg width="40" height="32" viewBox="0 0 40 32" version="1.1" xmlns="http://www.w3.org/2000/svg" xmlns:xlink="http://www.w3.org/1999/xlink">
<title>Shape</title>
<desc>Created using Figma</desc>
<g id="Canvas" transform="translate(-2407 -663)">
<g id="Shape" opacity="0.8">
<use xlink:href="#path0_fill" transform="translate(2407 663)" fill="#FFFFFF"/>
</g>
</g>
<defs>
<path id="path0_fill" fill-rule="evenodd" d="M 40 4L 40 28C 40 30.2031 38.2031 32 36 32L 4 32C 1.79688 32 0 30.2031 0 28L 0 4C 0 1.79688 1.79688 0 4 0L 36 0C 38.2031 0 40 1.79688 40 4ZM 32.3984 13L 33.2031 17.2031L 30.7969 17.2031L 32.3984 13ZM 8 10.7969L 9 15.7969C 7.79688 11.6016 2 9.79688 2 9.79688L 6.39844 9.79688C 7.60156 9.79688 8 10.7969 8 10.7969ZM 10.6016 20.7969L 14.7969 9.60156L 12 9.60156L 9.39844 17.6016C 9.39844 17.6016 9.20312 17 9.20312 16.6016C 7.79688 13.2031 5.39844 11.7969 5.39844 11.7969L 7.60156 20.7969L 10.6016 20.7969ZM 16 9.79688L 19 9.79688L 17.2031 21L 14.3984 21L 16 9.79688ZM 26.7969 17.2031C 26.7969 15.5611 25.4258 14.8135 24.2893 14.1936C 23.4844 13.7547 22.7969 13.3798 22.7969 12.7969C 22.7969 12.2031 23.2031 11.6016 24.6016 11.6016C 25.6016 11.6016 26.6016 12.3984 26.6016 12.3984L 27.2031 10C 27.2031 10 25.7969 9.39844 24.6016 9.39844C 21.6016 9.39844 20.2031 11 20.2031 12.7969C 20.2031 14.9057 21.5745 15.5735 22.7112 16.1271C 23.5159 16.5189 24.2031 16.8536 24.2031 17.6016C 24.2031 18 24 18.6016 22.3984 18.6016C 20.7969 18.6016 19.6016 18 19.6016 18L 19.2031 20.3984C 19.2031 20.3984 20.2031 21 22.2031 21C 24 21.2031 26.7969 19.6016 26.7969 17.2031ZM 34.3984 9.60156L 36.6016 20.7969L 34.2031 20.7969L 33.7969 19.2031L 30.2031 19.2031L 29.6016 20.7969L 26.7969 20.7969L 31.3984 9.60156L 34.3984 9.60156Z"/>
</defs>
</svg>
