<svg width="20" height="20" viewBox="0 0 20 20" version="1.1" xmlns="http://www.w3.org/2000/svg" xmlns:xlink="http://www.w3.org/1999/xlink">
<title>Shape</title>
<desc>Created using Figma</desc>
<g id="Canvas" transform="translate(-2576 -865)">
<g id="Shape" opacity="0.79863">
<use xlink:href="#path0_fill" transform="translate(2576 865)" fill="#FFFFFF"/>
</g>
</g>
<defs>
<path id="path0_fill" fill-rule="evenodd" d="M 2 0L 18 0C 19.1055 0 20 0.894531 20 2L 20 18C 20 19.1055 19.1055 20 18 20L 2 20C 0.894531 20 0 19.1055 0 18L 0 2C 0 0.894531 0.894531 0 2 0ZM 14.4922 13.9922L 16.3594 13.9688C 16.3594 13.9688 17.3398 13.9062 16.875 13.1367C 16.8398 13.0742 16.6055 12.5664 15.4844 11.5234C 14.9902 11.0639 14.7322 10.8293 14.7051 10.5706C 14.668 10.2158 15.0649 9.81543 15.8828 8.72656C 16.7422 7.57812 17.0859 6.87891 16.9766 6.57812C 16.875 6.28906 16.2422 6.36719 16.2422 6.36719L 14.1367 6.37891C 14.1367 6.37891 13.9805 6.35547 13.8672 6.42578C 13.7539 6.49609 13.6797 6.65234 13.6797 6.65234C 13.6797 6.65234 13.3477 7.53906 12.9023 8.29688C 11.9648 9.89062 11.5898 9.97656 11.4375 9.875C 11.1401 9.68213 11.1545 9.16376 11.167 8.70898C 11.1694 8.6203 11.1719 8.53406 11.1719 8.45312C 11.1719 8.10114 11.1838 7.7959 11.1941 7.53241C 11.2292 6.64087 11.2456 6.22729 10.7148 6.09766C 10.4844 6.04297 10.3164 6.00781 9.73047 6C 8.98047 5.99219 8.34375 6.00391 7.98438 6.17969C 7.74609 6.29688 7.5625 6.55859 7.67578 6.57422C 7.8125 6.59375 8.12891 6.66016 8.29688 6.89062C 8.51172 7.18359 8.50391 7.84375 8.50391 7.84375C 8.50391 7.84375 8.62891 9.66016 8.21484 9.88672C 7.93359 10.043 7.54297 9.72656 6.70703 8.27734C 6.27734 7.53516 5.95312 6.71875 5.95312 6.71875C 5.95312 6.71875 5.89062 6.5625 5.78125 6.48047C 5.64453 6.38281 5.45703 6.35156 5.45703 6.35156L 3.45703 6.35938C 3.45703 6.35938 3.15625 6.36328 3.04688 6.49219C 2.94922 6.60938 3.03906 6.83984 3.03906 6.83984C 3.03906 6.83984 4.60547 10.4922 6.37891 12.3398C 8.00391 14.0352 9.85156 13.8828 9.85156 13.8828L 10.6875 13.8828C 10.6875 13.8828 10.771 13.8879 10.8665 13.8658C 10.9375 13.8494 11.0154 13.8179 11.0703 13.7578C 11.1875 13.6289 11.1836 13.4297 11.1836 13.4297C 11.1836 13.4297 11.168 12.3086 11.6875 12.1406C 11.9995 12.0413 12.3645 12.46 12.759 12.9125C 13.0164 13.2077 13.2864 13.5173 13.5625 13.707C 14.0898 14.0703 14.4922 13.9922 14.4922 13.9922Z"/>
</defs>
</svg>
