<svg width="20" height="20" viewBox="0 0 20 20" version="1.1" xmlns="http://www.w3.org/2000/svg" xmlns:xlink="http://www.w3.org/1999/xlink">
<title>Shape</title>
<desc>Created using Figma</desc>
<g id="Canvas" transform="translate(-2700 -865)">
<g id="Shape" opacity="0.796705">
<use xlink:href="#path0_fill" transform="translate(2700 865)" fill="#FFFFFF"/>
</g>
</g>
<defs>
<path id="path0_fill" fill-rule="evenodd" d="M 18 0L 2 0C 0.898438 0 0 0.898438 0 2L 0 18C 0 19.1016 0.898438 20 2 20L 18 20C 19.1016 20 20 19.1016 20 18L 20 2C 20 0.898438 19.1016 0 18 0ZM 10 4.5C 7.97119 4.5 6.17188 4.7229 5.07812 4.88672C 4.17578 5.021 3.45117 5.70581 3.28442 6.62695C 3.14209 7.41113 3 8.56323 3 10C 3 11.4368 3.14209 12.5889 3.28442 13.373C 3.45117 14.2942 4.17578 14.979 5.07812 15.1133C 6.17456 15.2771 7.98193 15.5 10 15.5C 12.0181 15.5 13.8254 15.2771 14.9219 15.1133C 15.8269 14.979 16.5488 14.2942 16.7156 13.373C 16.8579 12.5889 17 11.4341 17 10C 17 8.56592 16.8579 7.41113 16.7156 6.62695C 16.5488 5.70581 15.8242 5.021 14.9219 4.88672C 13.8281 4.7229 12.0288 4.5 10 4.5ZM 12.7998 10L 7.8999 12.75L 7.8999 7.25L 12.7998 10Z"/>
</defs>
</svg>
